<svg width="35" height="34" viewBox="0 0 35 34" fill="none" xmlns="http://www.w3.org/2000/svg">
<rect x="0.504372" width="34" height="34" rx="3.4" fill="white"/>
<path d="M12.412 19.8054L12.4044 20.7878H13.9656H15.5269V25.2241V29.6603H16.6312H17.7355V25.2241V20.7878H19.2967H20.858V19.8244C20.858 19.2913 20.8466 18.8458 20.8313 18.8343C20.8199 18.8191 18.9197 18.8115 16.6159 18.8153L12.4234 18.8267L12.412 19.8054Z" fill="#007ACC"/>
<path d="M26.4645 18.7988C27.0737 18.9511 27.5383 19.2215 27.9648 19.6632C28.1857 19.8993 28.5131 20.3296 28.5398 20.4324C28.5474 20.4629 27.504 21.1635 26.8719 21.5558C26.8491 21.571 26.7577 21.472 26.6549 21.3197C26.3464 20.8703 26.0228 20.6761 25.5277 20.6419C24.8004 20.5924 24.332 20.9731 24.3358 21.6091C24.3358 21.7957 24.3625 21.9061 24.4386 22.0584C24.5986 22.3897 24.8956 22.5877 25.8285 22.9914C27.5459 23.7301 28.2809 24.2175 28.7378 24.9106C29.2481 25.6836 29.3623 26.9173 29.0158 27.8351C28.635 28.8327 27.6906 29.5105 26.3617 29.7352C25.9504 29.8076 24.9756 29.7961 24.5338 29.7162C23.5704 29.5448 22.6565 29.0688 22.093 28.4443C21.8721 28.2006 21.4418 27.5647 21.4685 27.519C21.4799 27.5038 21.5789 27.4428 21.6893 27.3781C21.7959 27.3172 22.1996 27.0849 22.5804 26.864L23.2696 26.4642L23.4143 26.6774C23.6161 26.9859 24.0579 27.4086 24.3244 27.5495C25.0898 27.9531 26.1408 27.896 26.6587 27.4314C26.8795 27.2296 26.9709 27.0202 26.9709 26.7117C26.9709 26.4337 26.9367 26.3119 26.792 26.1024C26.6054 25.8359 26.2246 25.6112 25.1431 25.1428C23.9055 24.6097 23.3724 24.2784 22.885 23.7529C22.6032 23.4483 22.3367 22.9609 22.2262 22.5534C22.1348 22.2145 22.112 21.3654 22.1843 21.0226C22.4395 19.827 23.342 18.993 24.6443 18.7455C25.067 18.6655 26.0494 18.696 26.4645 18.7988Z" fill="#007ACC"/>
</svg>
