<svg width="30" height="27" viewBox="0 0 30 27" fill="none" xmlns="http://www.w3.org/2000/svg">
<path d="M24.4042 8.92712C24.0956 8.82042 23.7843 8.72157 23.4708 8.63067C23.5234 8.41378 23.5719 8.19952 23.615 7.98903C24.3216 4.53239 23.8597 1.74766 22.2818 0.830792C20.7689 -0.0481769 18.2947 0.868348 15.796 3.05972C15.5497 3.27608 15.3089 3.49867 15.0738 3.72728C14.9164 3.57526 14.7562 3.42619 14.5934 3.28015C11.9745 0.937068 9.34958 -0.05046 7.77338 0.869033C6.26187 1.75074 5.8143 4.36859 6.45048 7.64451C6.51378 7.96896 6.58524 8.29173 6.66481 8.61252C6.29325 8.71891 5.93471 8.83215 5.59158 8.95269C2.52121 10.0314 0.560425 11.7219 0.560425 13.4754C0.560425 15.2864 2.66542 17.1029 5.86335 18.2044C6.12261 18.2933 6.38403 18.3757 6.64737 18.4515C6.56184 18.797 6.48591 19.1448 6.41967 19.4946C5.81316 22.7137 6.28679 25.2697 7.79423 26.1458C9.35116 27.0506 11.9643 26.1207 14.5087 23.8793C14.7151 23.6971 14.9168 23.5097 15.1139 23.3173C15.3685 23.5649 15.6299 23.8052 15.8978 24.0381C18.3626 26.1752 20.7968 27.0382 22.3027 26.1597C23.8582 25.2523 24.3638 22.5065 23.7074 19.1659C23.6557 18.9041 23.5977 18.6437 23.5335 18.3848C23.717 18.33 23.8972 18.2736 24.0727 18.215C27.3973 17.1051 29.5604 15.3106 29.5604 13.4754C29.5604 11.7155 27.5363 10.0136 24.4042 8.92712ZM23.6832 17.0301C23.5246 17.0829 23.3619 17.134 23.1961 17.1836C22.829 16.0128 22.3338 14.7678 21.7276 13.4814C22.306 12.2258 22.7822 10.9967 23.139 9.83349C23.4356 9.92002 23.7235 10.0112 24.001 10.1075C26.6847 11.0385 28.3216 12.4148 28.3216 13.4754C28.3216 14.605 26.5537 16.0715 23.6832 17.0301ZM22.4921 19.4083C22.7824 20.8854 22.8237 22.221 22.6315 23.2652C22.4588 24.2034 22.1115 24.8288 21.6819 25.0794C20.7681 25.6125 18.8137 24.9196 16.7058 23.0918C16.4567 22.8753 16.2135 22.6518 15.9766 22.4217C16.7939 21.5212 17.6105 20.4743 18.4075 19.3115C19.8095 19.1862 21.134 18.9812 22.3351 18.7014C22.3943 18.9419 22.4468 19.1777 22.4921 19.4083ZM10.4472 24.9873C9.55428 25.3049 8.8431 25.3141 8.41319 25.0643C7.49845 24.5327 7.11816 22.4804 7.63688 19.7275C7.69854 19.4022 7.76914 19.0787 7.8486 18.7573C9.03647 19.0221 10.3513 19.2125 11.7566 19.3274C12.5591 20.4651 13.3993 21.5109 14.246 22.4266C14.0661 22.6021 13.8819 22.773 13.6936 22.9394C12.5684 23.9304 11.4409 24.6336 10.4472 24.9873ZM6.26414 17.0231C4.85005 16.536 3.68223 15.9031 2.88178 15.2123C2.16245 14.5917 1.79938 13.9754 1.79938 13.4754C1.79938 12.4113 3.37365 11.054 5.9994 10.1315C6.31806 10.0197 6.65156 9.91408 6.99763 9.815C7.36059 11.0045 7.83659 12.2481 8.41104 13.5058C7.82912 14.782 7.34631 16.0455 6.97985 17.249C6.73948 17.1796 6.50083 17.1043 6.26414 17.0231ZM7.66633 7.40468C7.12134 4.59803 7.48327 2.48086 8.39416 1.94948C9.3643 1.38352 11.5096 2.19045 13.7708 4.21368C13.9183 4.34591 14.0633 4.48082 14.2059 4.61835C13.3634 5.53008 12.5309 6.56806 11.7355 7.69908C10.3716 7.82647 9.06603 8.03103 7.86571 8.30511C7.79175 8.00674 7.72527 7.70654 7.66633 7.4048V7.40468ZM20.1756 10.5174C19.8921 10.0239 19.5981 9.53661 19.2937 9.05589C20.219 9.17381 21.1056 9.33031 21.9381 9.52163C21.6882 10.3289 21.3766 11.1728 21.01 12.0381C20.7419 11.5256 20.4638 11.0186 20.1756 10.5174ZM15.0744 5.51056C15.6457 6.1344 16.218 6.83084 16.7809 7.58653C15.6391 7.53218 14.4953 7.53195 13.3534 7.58584C13.9169 6.83712 14.494 6.14159 15.0744 5.51056ZM9.94034 10.5259C9.65582 11.0232 9.38285 11.527 9.12165 12.0371C8.76097 11.1749 8.45228 10.3271 8.20023 9.50839C9.02763 9.32186 9.90998 9.16935 10.8294 9.05361C10.5216 9.53726 10.2252 10.0281 9.94034 10.5258V10.5259ZM10.8558 17.986C9.9059 17.8791 9.0103 17.7345 8.18312 17.553C8.43914 16.7197 8.75462 15.8539 9.12313 14.9732C9.38535 15.4836 9.65946 15.9878 9.94521 16.4852C10.2391 16.9966 10.5433 17.4975 10.8558 17.986ZM15.1086 21.5281C14.5213 20.8898 13.9357 20.1835 13.3637 19.424C13.919 19.4459 14.4851 19.4571 15.0604 19.4571C15.6515 19.4571 16.2358 19.4437 16.811 19.4179C16.2463 20.1912 15.6761 20.8985 15.1086 21.5281ZM21.0216 14.9282C21.4093 15.8186 21.736 16.6799 21.9954 17.4989C21.1546 17.6923 20.2468 17.848 19.2902 17.9636C19.5967 17.474 19.8936 16.9782 20.1805 16.4767C20.4722 15.9669 20.7527 15.4506 21.0216 14.9282ZM19.1074 15.8529C18.6681 16.6219 18.2041 17.3763 17.7162 18.1149C16.8323 18.1779 15.9465 18.2093 15.0604 18.2088C14.1579 18.2088 13.2801 18.1805 12.4348 18.1252C11.9341 17.3884 11.4613 16.6327 11.0173 15.8598H11.0174C10.5755 15.091 10.1628 14.3056 9.78005 13.5052C10.1618 12.7046 10.5733 11.9188 11.0137 11.1494L11.0136 11.1495C11.4538 10.38 11.9228 9.6275 12.4197 8.89379C13.2821 8.82804 14.1665 8.79379 15.0603 8.79379H15.0604C15.9583 8.79379 16.8438 8.82838 17.706 8.89459C18.1979 9.6272 18.6639 10.3771 19.1033 11.1428C19.5452 11.9105 19.9621 12.6925 20.3535 13.4875C19.9661 14.2906 19.5505 15.0796 19.1074 15.8529ZM21.663 1.91227C22.6341 2.47663 23.0117 4.75248 22.4016 7.73698C22.3626 7.92738 22.3189 8.12133 22.2713 8.31801C21.0681 8.03811 19.7616 7.83001 18.3937 7.70068C17.5969 6.55722 16.7712 5.51764 15.9423 4.61766C16.1596 4.40666 16.382 4.20112 16.6093 4.00125C18.7503 2.12379 20.7513 1.38249 21.663 1.91227ZM15.0604 10.8659C16.4906 10.8659 17.65 12.0342 17.65 13.4754C17.65 14.9166 16.4906 16.0849 15.0604 16.0849C13.6302 16.0849 12.4708 14.9166 12.4708 13.4754C12.4708 12.0342 13.6302 10.8659 15.0604 10.8659Z" fill="white"/>
</svg>
